<?xml version="1.0" encoding="utf-8"?>
<!-- Generator: Adobe Illustrator 19.1.0, SVG Export Plug-In . SVG Version: 6.00 Build 0)  -->
<svg version="1.1" id="Layer_1" xmlns="http://www.w3.org/2000/svg" xmlns:xlink="http://www.w3.org/1999/xlink" x="0px" y="0px"
	 viewBox="0 0 310.5 42.5" style="enable-background:new 0 0 310.5 42.5;" xml:space="preserve">
<style type="text/css">
	.st0{fill:#5A1947;}
</style>
<g>
	<path class="st0" d="M204.6,25.5c4.2-1.3,6.3-4,6.3-7.9c0-5.6-3.9-8.7-11.3-8.7h-6v25.5h1.9v-8.3h4.1c0.9,0,3.2-0.2,3.2-0.2
		l6.9,8.5h2l-7.3-8.9L204.6,25.5z M199.4,24.6h-3.9V10.4h3.9c6.1,0,9.7,2.8,9.7,7.2C209.1,22.1,205.6,24.6,199.4,24.6z"/>
	<polygon class="st0" points="218.6,22.3 228.2,22.3 228.2,20.7 218.6,20.7 218.6,10.5 233.2,10.5 233.2,8.9 216.7,8.9 216.7,34.4 
		233.8,34.4 233.8,32.8 218.6,32.8 	"/>
	<polygon class="st0" points="241.2,22.3 250.9,22.3 250.9,20.7 241.2,20.7 241.2,10.5 255.9,10.5 255.9,8.9 239.4,8.9 239.4,34.4 
		256.5,34.4 256.5,32.8 241.2,32.8 	"/>
	<path class="st0" d="M269,8.9h-6.8v25.5h6.8c8.8,0,14.5-5.2,14.5-12.8C283.5,13.9,278,8.9,269,8.9z M268.8,32.8H264V10.5h4.7
		c7.7,0,12.8,4.5,12.8,11.1C281.5,28.2,276.4,32.8,268.8,32.8z"/>
	<path class="st0" d="M81.2,9h-7.1v25.4h7.1c8.9,0,14.7-5,14.7-12.7C95.9,14,90.1,9,81.2,9z M81,31.7h-3.8v-20H81
		c7.5,0,11.8,3.6,11.8,10C92.8,28.1,88.5,31.7,81,31.7z"/>
	<rect x="101.1" y="9" class="st0" width="3" height="25.4"/>
	<path class="st0" d="M120.2,20.2l-2.2-1c-3.3-1.4-4.7-2.3-4.7-4.6c0-2.1,1.8-3.6,4.4-3.6c0.4,0,0.7,0,1.1,0.1
		c1.8,0.2,3.2,1.1,4.2,2.6l0.1,0.1l2.3-1.4l-0.1-0.2c-1.7-2.6-4.2-3.8-7.7-3.8c-4.3,0-7.3,2.5-7.3,6.2c0,3.6,2.4,5.3,6.5,7l2.2,1
		c3.4,1.4,5.1,2.6,5.1,5.3c0,2.6-2.2,4.2-5.8,4.2c-3.1,0-5.6-1.4-7-3.9l-0.1-0.1l-2.5,1.2l0.1,0.2c1.9,3.3,5.3,5.2,9.6,5.2
		c5.4,0,8.7-2.6,8.7-6.8C127,23.9,124.5,22.1,120.2,20.2z"/>
	<path class="st0" d="M144.9,7.6c-7.6,0-13.6,6-13.6,13.6c0,7.6,6,13.6,13.6,13.6c7.6,0,13.6-6,13.6-13.6
		C158.5,13.6,152.6,7.6,144.9,7.6z M144.9,31.8c-5.9,0-10.4-4.6-10.4-10.7c0-6.1,4.5-10.7,10.4-10.7c5.9,0,10.4,4.6,10.4,10.7
		C155.3,27.3,150.9,31.8,144.9,31.8z"/>
	<polygon class="st0" points="28.4,21.9 18,9 18,9 15.1,9 15.1,34.4 18,34.4 18,13.1 28.2,26.1 28.5,26.1 38.8,13.1 38.8,34.4 
		41.7,34.4 41.7,9 38.8,9 	"/>
	<polygon class="st0" points="182.2,28.6 165.9,9 165.8,9 163.4,9 163.4,34.4 166.2,34.4 166.2,13.8 183.4,34.3 183.4,34.4 
		185,34.4 185,9 182.2,9 	"/>
	<path class="st0" d="M59.4,9h-3L46.1,34.1L46,34.4h3l2.6-6.9h12.6l2.6,6.9h3.1L59.4,9.1L59.4,9z M52.7,24.8l5.2-12.5l5.1,12.5H52.7
		z"/>
	<path class="st0" d="M292.5,11.8c0-0.7-0.5-1.5-1.7-1.5h-2.1v4.9h0.9v-1.8h1.2l0.9,1.8h1l-1-2C292.1,12.9,292.5,12.4,292.5,11.8z
		 M290.7,12.6h-1.2v-1.5h1.2c0.7,0,0.9,0.5,0.9,0.7C291.6,12,291.5,12.6,290.7,12.6z"/>
	<path class="st0" d="M290.4,8.7c-2.3,0-4.1,1.8-4.1,4.1c0,2.3,1.8,4.1,4.1,4.1c2.3,0,4.1-1.8,4.1-4.1
		C294.5,10.5,292.7,8.7,290.4,8.7z M290.4,16.5c-2.1,0-3.7-1.7-3.7-3.7s1.7-3.7,3.7-3.7c2.1,0,3.7,1.7,3.7,3.7
		S292.5,16.5,290.4,16.5z"/>
</g>
</svg>
