<svg width="2058" height="273"><use xlink:href="#cl">
<path d="M932 223c-6 0-12 2-16 6 1-6-1-12-6-16 -7-6-18-4-24 3 0-2 9-49-46-54 -26-2-47 21-47 47 0 0 0 0 0 0 -3-7-32-10-37 11 -6-2-12-3-18-3 -20 0-37 13-41 29h259c0 0 0-1 0-1C956 233 945 223 932 223zM2380 61c-6 0-12 2-16 6 0-1 3-12-6-16 -8-4-18-4-24 3 0-2 1-51-46-54 -26-1-47 21-47 47v0c-2-2-25-16-37 11 -6-2-47-12-58 26h0 259c0 0 0-1 0-1C2404 71 2393 61 2380 61zM19 136c-3 0-6 1-9 2 1-2 10-32-25-30C-13 95-26 82-39 82c-9 0-16 5-20 12 -3-16-17-28-34-28 -19 0-34 15-34 34 -23-8-40 12-40 29 0 3 0 6 1 9 -4-2-8-3-13-3 -15 0-27 12-27 28 0 1 0 1 0 2H45C45 148 33 136 19 136zM1677 342c-1 0-2 0-3 0 0-10-8-17-17-17 0 0 0 0-1 0 0-1 0-2 0-2 0-3 0-6-1-8 -5-20-24-32-44-27 -20 5-32 24-27 44 -15-4-30 5-34 20h139C1689 346 1684 342 1677 342z"></path>
</use>
</svg>